<?xml version="1.0" standalone="no"?><!DOCTYPE svg PUBLIC "-//W3C//DTD SVG 1.1//EN" "http://www.w3.org/Graphics/SVG/1.1/DTD/svg11.dtd"><svg t="1591636355589" class="icon" viewBox="0 0 1024 1024" version="1.1" xmlns="http://www.w3.org/2000/svg" p-id="2383" width="14" height="14" xmlns:xlink="http://www.w3.org/1999/xlink"><defs><style type="text/css"></style></defs><path d="M288 320a32 32 0 0 0 32-32V128a32 32 0 0 0-64 0v160a32 32 0 0 0 32 32zM448 544H224a32 32 0 0 0 0 64h224a32 32 0 0 0 0-64zM800 544H576a32 32 0 0 0 0 64h224a32 32 0 0 0 0-64zM448 704H224a32 32 0 0 0 0 64h224a32 32 0 0 0 0-64zM800 704H576a32 32 0 0 0 0 64h224a32 32 0 0 0 0-64zM736 320a32 32 0 0 0 32-32V128a32 32 0 0 0-64 0v160a32 32 0 0 0 32 32z" p-id="2384" fill="#FFF"></path><path d="M928 160h-96a32 32 0 0 0 0 64h64v160H128V224h64a32 32 0 0 0 0-64H96a32 32 0 0 0-32 32v704a32 32 0 0 0 32 32h832a32 32 0 0 0 32-32V192a32 32 0 0 0-32-32zM128 880V448h768v432z" p-id="2385" fill="#FFF"></path><path d="M384 224h256a32 32 0 0 0 0-64H384a32 32 0 0 0 0 64z" p-id="2386" fill="#FFF"></path></svg>