<?xml version="1.0" standalone="no"?><!DOCTYPE svg PUBLIC "-//W3C//DTD SVG 1.1//EN" "http://www.w3.org/Graphics/SVG/1.1/DTD/svg11.dtd"><svg t="1591337657590" class="icon" viewBox="0 0 1024 1024" version="1.1" xmlns="http://www.w3.org/2000/svg" p-id="5187" width="18" height="18" xmlns:xlink="http://www.w3.org/1999/xlink"><defs><style type="text/css"></style></defs><path d="M807.8 500.6H618.5v427.7h85.7c75.8 0 137.4-61.6 137.4-137.4V534.3c0-18.6-15.1-33.7-33.8-33.7zM474.8 500.6H551v427.7h-76.2zM184.2 534.3v256.5c0 75.8 61.7 137.4 137.4 137.4h85.7V500.6H217.9c-18.6 0-33.7 15.1-33.7 33.7zM825.5 309.6H752c43.7-64.6 47.7-138.3 5-181-51.2-51.2-147-35.5-218.1 35.6-8 8-15.3 16.4-21.9 25.1-6.6-8.6-13.9-17-21.9-25.1-71.1-71.1-167-86.8-218.1-35.6-42.7 42.7-38.7 116.4 5 181h-81.5C143.9 309.6 98 355.5 98 412.1v20.1c0 16.4 13.3 29.7 29.7 29.7h770.8c16.4 0 29.7-13.3 29.7-29.7v-20.1c-0.2-56.6-46.1-102.5-102.7-102.5z m-239-97.6c46.6-46.6 102-56.2 122.7-35.6 20.6 20.6 11 76-35.6 122.6-3.7 3.7-7.5 7.2-11.5 10.6H560.2c0.6-16.5-1.9-33.8-7.2-51.2 7.6-15.5 18.5-31.4 33.5-46.4z m-226.4 87c-46.6-46.6-56.2-102.1-35.6-122.7 20.6-20.6 76-11 122.7 35.6 15 15 25.9 30.9 33.4 46.4-5.3 17.4-7.7 34.7-7.2 51.2H371.6c-4-3.3-7.9-6.8-11.5-10.5z" p-id="5188"></path></svg>