<?xml version="1.0" standalone="no"?><!DOCTYPE svg PUBLIC "-//W3C//DTD SVG 1.1//EN" "http://www.w3.org/Graphics/SVG/1.1/DTD/svg11.dtd"><svg t="1591337984501" class="icon" viewBox="0 0 1024 1024" version="1.1" xmlns="http://www.w3.org/2000/svg" p-id="5737" width="18" height="18" xmlns:xlink="http://www.w3.org/1999/xlink"><defs><style type="text/css"></style></defs><path d="M888.226 332.593c-20.615-47.849-50.108-90.804-87.661-127.67-37.505-36.819-81.175-65.725-129.796-85.914C620.455 98.117 567.038 87.524 512 87.524s-108.455 10.593-158.769 31.484c-48.621 20.189-92.291 49.095-129.796 85.914-37.553 36.866-67.046 79.821-87.661 127.67-21.372 49.606-32.209 102.286-32.209 156.576 0 70.795 18.998 140.41 54.94 201.32 34.799 58.972 84.654 108.64 144.178 143.635 15.862 9.327 34.385 25.493 53.994 42.609 44.688 39.004 95.337 83.213 155.322 83.213 63.249 0 116.729-46.707 163.914-87.916 19.499-17.031 37.918-33.117 53.889-43.034 57.191-35.513 104.972-84.883 138.174-142.772 34.318-59.836 52.458-127.977 52.458-197.056 0.001-54.289-10.836-106.969-32.208-156.574zM549 705.608c0 20.435-16.565 37-37 37s-37-16.565-37-37v-11.532c0-20.435 16.565-37 37-37s37 16.565 37 37v11.532z m12.787-153.072l-1.938 0.657-0.807 0.177c-0.972 0.39-3.934 1.779-6.374 5.015-4.797 6.362-6.239 18.042-4.061 32.887 2.967 20.218-11.019 39.013-31.236 41.979-1.82 0.267-3.632 0.397-5.418 0.397-18.059 0.001-33.862-13.235-36.563-31.633-7.37-50.228 9.561-80.071 25.062-96.26 14.843-15.502 31.396-21.597 38.549-23.64 35.306-12.557 39.144-46.479 39.144-60.577 0-36.473-29.673-66.146-66.146-66.146s-66.146 29.673-66.146 66.146c0 20.435-16.565 37-37 37s-37-16.565-37-37c0-77.277 62.869-140.146 140.146-140.146s140.146 62.869 140.146 140.146c0.001 61.907-34.623 112.103-90.358 130.998z" p-id="5738"></path></svg>