<?xml version="1.0" standalone="no"?><!DOCTYPE svg PUBLIC "-//W3C//DTD SVG 1.1//EN" "http://www.w3.org/Graphics/SVG/1.1/DTD/svg11.dtd"><svg t="1591240191347" class="icon" viewBox="0 0 1024 1024" version="1.1" xmlns="http://www.w3.org/2000/svg" p-id="3404" xmlns:xlink="http://www.w3.org/1999/xlink" width="32" height="32"><defs><style type="text/css"></style></defs><path d="M 490.8 433.6 c 0 -24.4 16.5 -44.2 36.8 -44.2 c 15.7 0 29 11.9 34.3 28.5 c 14.9 -2.7 30.3 -4.2 46.4 -4.2 c 2.1 0 4 0.2 6.1 0.2 c -24.9 -39.5 -84.5 -68.1 -152 -68.1 c -89.2 0 -164.5 49.8 -164.5 108.7 c 0 24.2 13.1 48.3 36.9 67.7 c 11.6 9.5 17 20.5 16.7 41.3 c 40.4 -10.5 47.6 -8.7 55.1 -6.9 c 0.5 0.1 1 0.2 1.6 0.3 c 5.4 -47.8 36.9 -88.8 83.4 -114.5 c -0.5 -2.8 -0.8 -5.7 -0.8 -8.8 Z M 404 477.8 c -20.3 0 -36.8 -19.8 -36.8 -44.2 s 16.5 -44.2 36.8 -44.2 c 20.3 0 36.8 19.8 36.8 44.2 s -16.5 44.2 -36.8 44.2 Z M 608.3 497.2 c -63.8 0 -117.7 34.2 -117.7 74.6 s 53.9 74.6 117.7 74.6 c 14 0 27.8 -1.6 40.9 -4.8 c 6.5 -1.6 12.2 -3 36.2 2.6 c 1.8 -11.3 6.6 -20 15.6 -27.4 c 11.4 -9.4 25.1 -24.8 25.1 -45.1 c 0 -40.4 -53.9 -74.5 -117.8 -74.5 Z m -50.1 99 c -15.2 0 -27.5 -14.8 -27.5 -33 s 12.3 -33 27.5 -33 s 27.5 14.8 27.5 33 s -12.3 33 -27.5 33 Z m 98 0 c -15.2 0 -27.5 -14.8 -27.5 -33 s 12.3 -33 27.5 -33 s 27.5 14.8 27.5 33 s -12.3 33 -27.5 33 Z" fill="#DDDDDD" p-id="3405"></path><path d="M 512 64 C 264.6 64 64 264.6 64 512 s 200.6 448 448 448 s 448 -200.6 448 -448 S 759.4 64 512 64 Z m 262 628.4 l 14.5 69.1 l -67.5 -20.8 c -21.4 -6.6 -48 -14 -59.4 -16.5 c -17.3 3.7 -35.1 5.5 -53.2 5.5 c -79 0 -145.9 -34.1 -178.9 -85 c -12.1 -1.2 -24.1 -2.9 -35.8 -5.5 c -13.9 2.7 -50.7 13 -80.5 22.2 l -67.5 20.7 l 14.5 -69.1 c 2.9 -13.9 5.5 -29.1 6.9 -39.6 c -34 -33.6 -52.5 -75.1 -52.5 -118.8 c 0 -105.9 111.2 -192 247.8 -192 c 127.9 0 233.4 75.4 246.4 171.9 c 60.5 26.9 100.6 77.7 100.6 137.3 c 0 34.9 -14.1 68 -40 95.2 c 1.1 7.4 2.8 16.8 4.6 25.4 Z" fill="#DDDDDD" p-id="3406"></path></svg>